<svg xmlns="http://www.w3.org/2000/svg" viewBox="0 0 20 20">
  <path fill="currentColor" d="M3.291 15.571c-.405 0-.72-.094-.949-.282A.926.926 0 0 1 2 14.536c0-.285.083-.561.248-.83.165-.267.372-.53.62-.786s.494-.513.74-.77c.188-.193.335-.447.44-.76a5.73 5.73 0 0 0 .235-1c.051-.354.088-.696.111-1.027.017-1.095.134-2.07.35-2.925.218-.855.558-1.573 1.023-2.154C6.23 3.702 6.843 3.274 7.6 3c.16-.559.453-1.032.88-1.42.43-.386.958-.58 1.585-.58.632 0 1.163.194 1.59.581.428.388.721.861.88 1.42.76.274 1.37.701 1.83 1.283.463.581.803 1.3 1.023 2.154.22.856.337 1.83.355 2.925.022.33.06.673.11 1.026.052.354.13.687.236 1 .105.314.252.568.44.762l.74.77c.248.256.455.518.62.786.165.268.248.544.248.83a.926.926 0 0 1-.342.752c-.228.188-.545.282-.95.282H3.292ZM10.064 19c-.48 0-.91-.105-1.292-.316a2.65 2.65 0 0 1-.923-.83 2.288 2.288 0 0 1-.402-1.111h5.242c-.04.399-.175.77-.406 1.111a2.61 2.61 0 0 1-.92.83c-.382.21-.815.316-1.3.316Z"/>
</svg>
