<svg xmlns="http://www.w3.org/2000/svg" viewBox="0 0 20 20">
  <path fill="currentColor" d="M12.675 2C14.838 2 16 3.198 16 5.325v.674L17.402 6C19.092 6 20 6.93 20 8.598v4.52c0 1.667-.907 2.598-2.598 2.598h-.272v1.474c0 .437-.221.72-.618.72-.243 0-.421-.112-.694-.346l-2.08-1.848h-3.64c-1.095 0-1.861-.393-2.265-1.12l-2.464 2.192c-.358.308-.588.457-.904.457-.509 0-.792-.363-.792-.922v-1.887h-.348C1.162 14.436 0 13.246 0 11.111V5.325C0 3.19 1.162 2 3.325 2h9.35Zm4.727 5.25h-7.304c-.988 0-1.348.363-1.348 1.348v4.52c0 .984.36 1.348 1.348 1.348h4.116l1.666 1.482v-1.482h1.522c.99 0 1.348-.36 1.348-1.348v-4.52c0-.988-.358-1.348-1.348-1.348Zm-4.727-4h-9.35c-1.46 0-2.075.618-2.075 2.075v5.786c0 1.457.614 2.075 2.075 2.075h1.598l.001 2.327 2.577-2.295-.001-4.62C7.5 6.936 8.407 6 10.098 6l4.652-.001v-.674c0-1.392-.567-2.022-1.897-2.072l-.178-.003Z"/>
</svg>
