<svg xmlns="http://www.w3.org/2000/svg" viewBox="0 0 20 20">
  <path fill="currentColor" d="M17.402 6C19.092 6 20 6.93 20 8.598v4.52c0 1.667-.907 2.598-2.598 2.598h-.272v1.474c0 .437-.221.72-.618.72-.243 0-.421-.112-.694-.346l-2.08-1.848h-3.64c-1.69 0-2.598-.936-2.598-2.598v-4.52C7.5 6.936 8.407 6 10.098 6h7.304Zm-4.727-4c2.05 0 3.201 1.076 3.316 3H9.8a3.3 3.3 0 0 0-3.3 3.3v5.15c0 .68.206 1.312.558 1.837l-1.689 1.5c-.358.31-.588.458-.904.458-.509 0-.792-.363-.792-.922v-1.887h-.348C1.162 14.436 0 13.246 0 11.111V5.325C0 3.19 1.162 2 3.325 2h9.35Z"/>
</svg>
