<svg xmlns="http://www.w3.org/2000/svg" viewBox="0 0 20 20">
  <g fill="none" fill-rule="evenodd" stroke="currentColor">
    <path stroke-width="1.25" d="M15.26 2.625c1.01 0 1.804.25 2.334.78.534.534.781 1.332.781 2.335v6.51c0 1.003-.247 1.801-.78 2.335-.619.618-1.594.855-2.852.76l-.501 2.715c-.539.466-.704.255-1.025-.03l-2.996-2.665h-5.48c-1.01 0-1.803-.251-2.333-.781-.535-.535-.783-1.333-.783-2.334V5.74c0-1 .248-1.798.783-2.333.53-.53 1.323-.782 2.332-.782Z"/>
    <path stroke-linecap="round" d="M5.5 6.5h9M5.5 9h9m-9 2.5h6"/>
  </g>
</svg>
