<svg xmlns="http://www.w3.org/2000/svg" viewBox="0 0 20 20">
  <g fill="none" fill-rule="evenodd" stroke="currentColor">
    <path stroke-width="1.5" d="M15.26 2.75c.97 0 1.735.233 2.246.744.513.514.744 1.283.744 2.246v6.51c0 .963-.23 1.733-.744 2.247-.615.614-1.6.827-2.865.715l-.523 2.83c-.39.36-.532.149-.818-.105l-3.031-2.697H4.74c-.968 0-1.734-.234-2.244-.745-.515-.514-.746-1.284-.746-2.245V5.74c0-.96.231-1.73.746-2.245.51-.51 1.276-.745 2.244-.745Z"/>
    <path stroke-linecap="round" d="M5.5 6.5h9M5.5 9h9m-9 2.5h6"/>
  </g>
</svg>
