<svg xmlns="http://www.w3.org/2000/svg" viewBox="0 0 20 20">
  <path fill="currentColor" d="M10 1.5a4 4 0 0 0-4 4h8a4 4 0 0 0-4-4Zm9 9h-3V7.923l2.217-2.216a1 1 0 0 0-1.414-1.414L14.587 6.51h-9.16L3.21 4.293a1 1 0 0 0-1.413 1.414L4 7.92v2.577H1a1 1 0 0 0 0 2h3a5.94 5.94 0 0 0 .427 2.203.94.94 0 0 0-.134.09l-2.83 2.83a1 1 0 0 0 1.414 1.413l2.6-2.6A6 6 0 0 0 9 18.413V8.5h2v9.913a6 6 0 0 0 3.52-1.976l2.6 2.6a1 1 0 0 0 1.413-1.414l-2.83-2.83a.94.94 0 0 0-.133-.09c.282-.7.428-1.448.43-2.203h3a1 1 0 0 0 0-2Z"/>
</svg>
