<svg xmlns="http://www.w3.org/2000/svg" viewBox="0 0 20 20">
  <g fill="currentColor">
    <path d="M14 1a1 1 0 0 1 1 1v1h.5A1.5 1.5 0 0 1 17 4.5v5.707a5.49 5.49 0 0 0-1.25-.201V8H2.25v9.25a.5.5 0 0 0 .5.5h7.73c.203.453.466.873.778 1.25H2.5A1.5 1.5 0 0 1 1 17.5v-13A1.5 1.5 0 0 1 2.5 3H3V2a1 1 0 1 1 2 0v1h8V2a1 1 0 0 1 1-1ZM6 14v2H4v-2h2Zm4 0v2H8v-2h2Zm-4-4v2H4v-2h2Zm4 0v2H8v-2h2Z"/>
    <path d="M15.5 11a4.5 4.5 0 1 1 0 9 4.5 4.5 0 0 1 0-9Zm0 2a.5.5 0 0 0-.5.5V15h-1.5l-.09.008a.5.5 0 0 0 .09.992H15v1.5l.008.09A.5.5 0 0 0 16 17.5V16h1.5l.09-.008A.5.5 0 0 0 17.5 15H16v-1.5l-.008-.09A.5.5 0 0 0 15.5 13Z"/>
  </g>
</svg>
