<svg xmlns="http://www.w3.org/2000/svg" viewBox="0 0 20 20">
  <path fill="currentColor" d="M17.328 18C19.106 18 20 17.115 20 15.36V6.45c0-1.753-.894-2.63-2.672-2.63h-1.983c-.664 0-.877-.136-1.251-.562l-.69-.766c-.425-.468-.86-.723-1.736-.723H8.272c-.876 0-1.31.255-1.736.723l-.68.766c-.375.417-.588.562-1.252.562H2.672C.894 3.821 0 4.698 0 6.451v8.91C0 17.115.894 18 2.672 18h14.656ZM10 15.276a4.631 4.631 0 0 1-4.638-4.655A4.631 4.631 0 0 1 10 5.966a4.633 4.633 0 0 1 4.647 4.655A4.633 4.633 0 0 1 10 15.276Zm0-8.017a3.358 3.358 0 0 1 3.362 3.362 3.358 3.358 0 1 1-6.715 0A3.35 3.35 0 0 1 10 7.26Zm6.12-.817c.578 0 1.054.468 1.054 1.056 0 .578-.476 1.046-1.055 1.046a1.053 1.053 0 0 1-1.055-1.046c0-.588.476-1.056 1.055-1.056Z"/>
</svg>
