<svg xmlns="http://www.w3.org/2000/svg" viewBox="0 0 20 20">
  <path fill="currentColor" d="M11.352 6.5c-.79 0-4.172.078-6.352 3.36V6.5c0-2.07-1.68-3.75-3.75-3.75C.562 2.75 0 3.313 0 4c0 .688.562 1.25 1.25 1.25S2.5 5.812 2.5 6.5v10C2.5 17.877 3.623 19 5 19h6.875c.347 0 .625-.278.625-.59v-.66c0-.688-.562-1.25-1.25-1.25H10l5-3.75v5.625c0 .347.278.625.625.625h1.25a.623.623 0 0 0 .625-.625v-8.05c-.4.102-.816.175-1.25.175a5.006 5.006 0 0 1-4.898-4ZM17.5 2.75H15L12.5.25V5.5c0 2.07 1.68 3.715 3.75 3.715C18.32 9.215 20 7.57 20 5.5V.25l-2.5 2.5Zm-2.813 3.125a.623.623 0 0 1-.624-.625c0-.347.278-.625.624-.625.347 0 .626.278.626.625a.622.622 0 0 1-.626.625Zm3.126 0a.623.623 0 0 1-.625-.625c0-.347.278-.625.625-.625.346 0 .625.278.625.625a.622.622 0 0 1-.625.625Z"/>
</svg>
