<svg xmlns="http://www.w3.org/2000/svg" viewBox="0 0 20 20">
  <path fill="none" stroke="currentColor" stroke-width="1.5" d="M9.104 3.75c1.064 0 2.036.282 2.86.802.845.533 1.533 1.314 2.016 2.283 1.944.412 3.063.834 3.86 1.562a3.774 3.774 0 0 1 1.23 2.829 3.953 3.953 0 0 1-1.192 2.858c-.748.728-1.79 1.166-2.964 1.166H4.207c-.99 0-1.824-.289-2.405-.817-.562-.51-.872-1.24-.872-2.09 0-.687.217-1.308.597-1.804.392-.51.954-.886 1.617-1.073.175-.05.35-.084.525-.103a5.551 5.551 0 0 1 1.766-4.158 5.37 5.37 0 0 1 3.67-1.455Z"/>
</svg>
