<svg xmlns="http://www.w3.org/2000/svg" viewBox="0 0 20 20">
  <g fill="none" fill-rule="evenodd" stroke="currentColor" stroke-width="1.5">
    <path d="M5.5 14.25H3.993c-.78 0-1.063-.081-1.348-.234a1.59 1.59 0 0 1-.661-.661c-.153-.285-.234-.568-.234-1.348V3.993c0-.78.081-1.063.234-1.348a1.59 1.59 0 0 1 .661-.661c.285-.153.568-.234 1.348-.234h8.014c.78 0 1.063.081 1.348.234.285.152.509.376.661.661.153.285.234.568.234 1.348V5.5"/>
    <path d="M7.993 5.75h8.014c.78 0 1.063.081 1.348.234.285.152.509.376.661.661.153.285.234.568.234 1.348v8.014c0 .78-.081 1.063-.234 1.348a1.59 1.59 0 0 1-.661.661c-.285.153-.568.234-1.348.234H7.993c-.78 0-1.063-.081-1.348-.234a1.59 1.59 0 0 1-.661-.661c-.153-.285-.234-.568-.234-1.348V7.993c0-.78.081-1.063.234-1.348a1.59 1.59 0 0 1 .661-.661c.285-.153.568-.234 1.348-.234Z"/>
  </g>
</svg>
