<svg xmlns="http://www.w3.org/2000/svg" viewBox="0 0 20 20">
  <g fill="none" fill-rule="evenodd" stroke="currentColor" stroke-width="1.75">
    <path d="M7.923 6h8.154c.669 0 .911.07 1.156.2.244.131.436.323.567.567.13.245.2.487.2 1.156v8.154c0 .669-.07.911-.2 1.156a1.371 1.371 0 0 1-.567.567c-.245.13-.487.2-1.156.2H7.923c-.669 0-.911-.07-1.156-.2a1.363 1.363 0 0 1-.567-.567c-.13-.245-.2-.487-.2-1.156V7.923c0-.669.07-.911.2-1.156.131-.244.323-.436.567-.567.245-.13.487-.2 1.156-.2Z"/>
    <path d="M4 14h-.5A1.5 1.5 0 0 1 2 12.5v-9A1.5 1.5 0 0 1 3.5 2h9A1.5 1.5 0 0 1 14 3.5V4"/>
  </g>
</svg>
