<svg xmlns="http://www.w3.org/2000/svg" viewBox="0 0 20 20">
  <g fill="none" fill-rule="evenodd">
    <path fill="currentColor" fill-rule="nonzero" d="m16 6-.445 11.558A1.5 1.5 0 0 1 14.057 19H5.943a1.5 1.5 0 0 1-1.498-1.442L4 6h12Zm-6 2a.5.5 0 0 0-.5.5v8a.5.5 0 1 0 1 0v-8A.5.5 0 0 0 10 8Zm3.016 0a.5.5 0 0 0-.516.484l-.25 8a.5.5 0 1 0 1 .032l.25-8A.5.5 0 0 0 13.016 8ZM6.984 8a.5.5 0 0 0-.484.516l.25 8a.5.5 0 1 0 1-.032l-.25-8A.5.5 0 0 0 6.984 8Z"/>
    <path stroke="currentColor" stroke-linecap="round" stroke-width="1.5" d="M2.75 4.25h14.5"/>
    <path stroke="currentColor" stroke-linecap="round" d="m7.25 4.25.167-1.84a1 1 0 0 1 .996-.91h3.174a1 1 0 0 1 .996.91l.167 1.84h0"/>
  </g>
</svg>
