<svg xmlns="http://www.w3.org/2000/svg" viewBox="0 0 20 20">
  <path fill="currentColor" d="m11.14 2.292 7.216 5.01c.403.28.644.741.644 1.233V17.5a1.5 1.5 0 0 1-1.5 1.5h-15A1.5 1.5 0 0 1 1 17.5V8.535c0-.492.24-.952.644-1.233l7.215-5.01a2 2 0 0 1 2.282 0ZM9.413 12.376l-5.93 5.374h13.035l-5.93-5.374a.875.875 0 0 0-1.175 0Zm8.338-3.274-4.341 4.144 4.341 3.934V9.102Zm-15.5.001v8.076l4.34-3.933-4.34-4.143Zm7.322-5.784L2.874 7.97l4.645 4.434 1.054-.954a2.125 2.125 0 0 1 2.854 0l1.053.954 4.645-4.434-6.697-4.651a.75.75 0 0 0-.856 0Z"/>
</svg>
