<svg xmlns="http://www.w3.org/2000/svg" viewBox="0 0 20 20">
  <path fill="currentColor" d="m11.14 2.292 7.216 5.01c.403.28.644.741.644 1.233V17.5a1.5 1.5 0 0 1-1.5 1.5h-15A1.5 1.5 0 0 1 1 17.5V8.535c0-.492.24-.952.644-1.233l7.215-5.01a2 2 0 0 1 2.282 0ZM9.43 12.394 3.573 17.7h12.851l-5.854-5.306a.85.85 0 0 0-1.142 0Zm-7.131-3.21v7.917l4.255-3.856-4.255-4.061Zm15.4.001-4.254 4.06 4.254 3.855V9.185ZM9.601 3.36 2.93 7.991l4.59 4.379 1.036-.939a2.15 2.15 0 0 1 2.888 0l1.035.939 4.589-4.379-6.669-4.631a.7.7 0 0 0-.798 0Z"/>
</svg>
