<svg xmlns="http://www.w3.org/2000/svg" viewBox="0 0 20 20">
  <g fill="none" fill-rule="evenodd">
    <path fill="currentColor" fill-rule="nonzero" d="m3.863 5.984.894.895c-1.028.745-1.97 1.712-2.818 2.872l-.182.254.181.252c2.063 2.814 4.698 4.49 7.748 4.611l.317.007a8.46 8.46 0 0 0 2.413-.337l.99.991a9.707 9.707 0 0 1-3.409.596C6.134 16.11 2.88 13.945.48 10.353a.625.625 0 0 1 0-.693c.899-1.351 1.917-2.5 3.042-3.41l.34-.266Zm6.136-2.109c3.861-.004 7.115 2.168 9.521 5.785.14.21.14.483 0 .693-.99 1.483-2.122 2.723-3.378 3.669l-.895-.895c1.024-.743 1.964-1.708 2.812-2.866l.182-.256-.18-.255c-2.068-2.832-4.7-4.514-7.744-4.62L10 5.125a8.58 8.58 0 0 0-2.411.344l-.99-.99a9.82 9.82 0 0 1 3.4-.604ZM6.316 8.438l1.209 1.209a2.5 2.5 0 0 0 2.828 2.828l1.209 1.209a4 4 0 0 1-5.245-5.245ZM10 6a4 4 0 0 1 3.684 5.562l-1.209-1.208a2.5 2.5 0 0 0-2.83-2.83L8.438 6.318A3.987 3.987 0 0 1 10 6Z"/>
    <path stroke="currentColor" stroke-linecap="round" stroke-width="1.5" d="m3.5 3.5 13 13"/>
  </g>
</svg>
