<svg xmlns="http://www.w3.org/2000/svg" viewBox="0 0 20 20">
  <path fill="currentColor" d="M19.688 8.746c-.16-.102-1.422-.856-1.922-1.086l-.62-1.5c.184-.496.538-1.886.6-2.128a.668.668 0 0 0-.18-.62l-.978-.972a.664.664 0 0 0-.62-.18c-.184.042-1.6.4-2.128.6l-1.5-.62c-.218-.48-.952-1.71-1.086-1.922A.664.664 0 0 0 10.688 0H9.312a.67.67 0 0 0-.566.312c-.102.16-.856 1.422-1.086 1.922l-1.5.62c-.496-.184-1.886-.538-2.128-.6a.668.668 0 0 0-.62.18l-.972.978a.664.664 0 0 0-.18.62c.042.184.4 1.6.6 2.128l-.62 1.5c-.48.218-1.71.952-1.922 1.086A.664.664 0 0 0 0 9.312v1.374c0 .23.118.443.312.566.16.102 1.422.856 1.922 1.086l.62 1.5c-.184.496-.538 1.886-.6 2.128a.668.668 0 0 0 .18.62l.972.972a.664.664 0 0 0 .62.18c.184-.042 1.6-.4 2.128-.6l1.5.62c.218.48.952 1.71 1.086 1.922.121.2.338.321.572.32h1.374a.67.67 0 0 0 .566-.312c.102-.16.856-1.422 1.086-1.922l1.5-.62c.496.184 1.886.538 2.128.6a.668.668 0 0 0 .62-.18l.972-.972a.664.664 0 0 0 .18-.62c-.042-.184-.4-1.6-.6-2.128l.62-1.5c.48-.218 1.71-.952 1.922-1.086a.664.664 0 0 0 .32-.572V9.312a.66.66 0 0 0-.312-.566ZM9.996 14.8a4.8 4.8 0 1 1 4.804-4.796A4.807 4.807 0 0 1 9.996 14.8Z"/>
</svg>
