<svg xmlns="http://www.w3.org/2000/svg" viewBox="0 0 20 20">
  <path fill="currentColor" d="M9.99 0C15.46 0 20 4.54 20 10c0 5.47-4.53 10-10 10-5.46 0-10-4.53-10-10C0 4.54 4.53 0 9.99 0Zm.008 12.937c-.62 0-1.122.476-1.122 1.082 0 .606.503 1.081 1.122 1.081.627 0 1.13-.475 1.13-1.081s-.503-1.082-1.13-1.082ZM10.26 4.9c-1.48 0-2.583.585-3.023 1.495a1.704 1.704 0 0 0-.207.82c0 .523.337.86.882.86.42 0 .73-.193.902-.634.22-.613.675-.943 1.35-.943.757 0 1.28.468 1.28 1.143 0 .634-.268.978-1.156 1.508-.813.476-1.233 1.013-1.233 1.826v.096c0 .565.344.964.93.964.489 0 .757-.268.86-.73.09-.578.297-.875 1.213-1.405.97-.572 1.474-1.28 1.474-2.32 0-1.606-1.316-2.68-3.272-2.68Z"/>
</svg>
