<svg xmlns="http://www.w3.org/2000/svg" viewBox="0 0 20 20">
  <path fill="currentColor" d="M1.978 18.207c-.312 0-.553-.087-.723-.26-.17-.173-.255-.421-.255-.744V5.563c0-.294.06-.546.182-.757.12-.21.308-.388.562-.532l4.5-2.562a1.71 1.71 0 0 1 .892-.242c.317 0 .608.08.874.242l4.699 2.882 4.586-2.553a2.63 2.63 0 0 1 .39-.169c.115-.037.228-.056.337-.056.312 0 .553.087.723.26.17.173.255.418.255.735v11.657c0 .289-.06.538-.182.749-.12.21-.311.388-.57.532l-4.527 2.57c-.26.15-.548.225-.865.225a1.97 1.97 0 0 1-.97-.26l-4.785-2.682-4.405 2.37c-.138.082-.265.14-.38.178a1.089 1.089 0 0 1-.338.057Zm4.56-3.981V3.175a7.085 7.085 0 0 0-.151.086 2.68 2.68 0 0 1-.16.087L2.679 5.425a.544.544 0 0 0-.22.203.552.552 0 0 0-.066.273v10.376c0 .092.038.138.113.138a.332.332 0 0 0 .13-.043l3.902-2.146Zm1.394.138 3.755 2.12c.064.035.127.068.19.1.064.032.128.065.191.1V5.865l-3.86-2.354a3.485 3.485 0 0 0-.276-.155v11.007Zm5.53 2.475.194-.104a2.62 2.62 0 0 0 .195-.112l3.47-2.016a.533.533 0 0 0 .22-.208.577.577 0 0 0 .066-.277V3.746c0-.046-.01-.08-.03-.104-.02-.023-.051-.034-.091-.034a.337.337 0 0 0-.122.043L13.462 5.78v11.06Z"/>
</svg>
