<svg xmlns="http://www.w3.org/2000/svg" viewBox="0 0 20 20">
  <path fill="currentColor" d="M1 17.21V5.564c0-.289.062-.538.186-.749.124-.21.316-.388.576-.532l4.101-2.354a3.4 3.4 0 0 1 .243-.134c.086-.043.167-.082.242-.117v14.34L2.713 17.98c-.27.15-.513.225-.726.225-.312 0-.554-.087-.727-.26-.173-.173-.26-.418-.26-.735Zm6.534-1.358V1.53a1.676 1.676 0 0 1 .485.199l4.274 2.614v14.123a1.438 1.438 0 0 1-.194-.07 4.199 4.199 0 0 1-.204-.095l-4.361-2.449Zm5.936 2.588V4.178l3.817-2.12c.27-.15.513-.225.726-.225.312 0 .554.086.727.26.173.173.26.418.26.735v11.657c0 .288-.062.538-.186.748-.124.21-.316.388-.576.533l-4.508 2.561a1.49 1.49 0 0 1-.126.065.742.742 0 0 1-.134.048Z"/>
</svg>
