<svg xmlns="http://www.w3.org/2000/svg" viewBox="0 0 20 20">
  <path fill="currentColor" d="m15.68 10.383-6.169 6.17c-1.603 1.611-3.76 1.452-5.137.058-1.385-1.376-1.545-3.517.059-5.129l8.42-8.41c.964-.966 2.383-1.1 3.306-.185.915.931.781 2.342-.176 3.307L7.757 14.42c-.412.429-.915.303-1.2.017-.286-.294-.404-.78.008-1.209l5.75-5.733c.252-.26.268-.63.025-.873-.243-.235-.613-.218-.865.034L5.71 12.423c-.857.856-.823 2.165-.068 2.92.823.823 2.065.807 2.93-.058l8.26-8.26c1.57-1.57 1.503-3.635.134-5.003-1.334-1.335-3.433-1.435-5.003.134l-8.461 8.47c-2.074 2.074-1.914 5.037-.042 6.909 1.872 1.863 4.835 2.023 6.908-.042l6.212-6.212c.244-.243.244-.688-.008-.915-.244-.26-.638-.227-.89.017Z"/>
</svg>
