<svg xmlns="http://www.w3.org/2000/svg" viewBox="0 0 20 20">
  <path fill="currentColor" d="M5.095 1.215c.018.378 1.962 4.608 1.98 4.986.018.378-1.278 1.684-1.665 2.062-.378.378 2.538 3.672 2.592 3.735.063.054 3.357 2.97 3.735 2.592.378-.378 1.684-1.683 2.062-1.665.378.018 4.608 1.962 4.986 1.98.378.018.261 2.197-.459 2.917-.612.612-3.807 2.853-9.352-1.143-.603-.351-1.575-1.152-3.033-2.61-1.459-1.459-2.26-2.422-2.61-3.034-4.006-5.563-1.765-8.749-1.153-9.361.72-.72 2.899-.846 2.917-.46Z"/>
</svg>
