<svg xmlns="http://www.w3.org/2000/svg" viewBox="0 0 20 20">
  <path fill="currentColor" d="M10 0c5.523 0 10 4.477 10 10s-4.477 10-10 10S0 15.523 0 10 4.477 0 10 0ZM7.274 5.12c-.01-.216-1.22-.146-1.62.254-.34.34-1.584 2.11.64 5.2.195.34.64.875 1.45 1.685l.182.18c.71.697 1.194 1.09 1.503 1.27 3.08 2.22 4.855.975 5.195.635.4-.4.465-1.61.255-1.62-.21-.01-2.56-1.09-2.77-1.1-.21-.01-.935.715-1.145.925-.095.095-.525-.187-.97-.527l-.265-.208c-.437-.35-.824-.691-.84-.705-.03-.035-1.65-1.865-1.44-2.075l.144-.143c.291-.294.79-.827.781-1.002-.01-.21-1.09-2.56-1.1-2.77Z"/>
</svg>
