<svg xmlns="http://www.w3.org/2000/svg" viewBox="0 0 20 20">
  <g fill="none" fill-rule="evenodd">
    <path fill="currentColor" fill-rule="nonzero" d="M5.654 5.374c.4-.4 1.61-.47 1.62-.255.01.21 1.09 2.56 1.1 2.77.01.21-.71.935-.925 1.145-.21.21 1.41 2.04 1.44 2.075.035.03 1.865 1.65 2.075 1.44.21-.21.935-.935 1.145-.925.21.01 2.56 1.09 2.77 1.1.21.01.145 1.22-.255 1.62-.34.34-2.115 1.585-5.195-.635-.335-.195-.875-.64-1.685-1.45-.81-.81-1.255-1.345-1.45-1.685-2.224-3.09-.98-4.86-.64-5.2Z"/>
    <circle cx="10" cy="10" r="9.5" stroke="currentColor" stroke-linecap="round" stroke-linejoin="round"/>
  </g>
</svg>
