<svg xmlns="http://www.w3.org/2000/svg" viewBox="0 0 20 20">
  <path fill="currentColor" d="M1.349 13.562c.29 1.592 1.223 2.243 2.847 1.969l.165-.031v.07c0 1.624.815 2.432 2.462 2.432h10.714c1.632 0 2.463-.816 2.463-2.432V8.174c0-1.616-.831-2.431-2.463-2.431h-1.686l-.384-2.18c-.29-1.593-1.232-2.252-2.847-1.97L2.063 3.454c-1.608.29-2.283 1.23-2 2.823l1.286 7.286Zm1.231-.282L1.317 6.127c-.14-.808.212-1.302.989-1.435l10.51-1.851c.76-.126 1.278.204 1.42 1.004l.336 1.898H6.823c-1.647 0-2.462.815-2.462 2.431v6.047L4 14.284c-.777.133-1.279-.204-1.42-1.004Zm3.043-5.035c0-.816.432-1.24 1.216-1.24h10.675c.776 0 1.223.424 1.223 1.24v6.11l-2.933-2.77a1.542 1.542 0 0 0-2.118-.007l-3.168 2.808-1.255-1.137c-.306-.275-.628-.4-.965-.4-.306 0-.596.125-.902.384l-1.773 1.545V8.245Zm4.33 3.513c.918 0 1.663-.76 1.663-1.678 0-.902-.745-1.663-1.663-1.663s-1.663.76-1.663 1.663c0 .918.745 1.678 1.663 1.678Z"/>
</svg>
