<svg xmlns="http://www.w3.org/2000/svg" viewBox="0 0 20 20">
  <path fill="currentColor" d="M11.017 15.4a.986.986 0 0 1-.727-.313c-.205-.209-.308-.513-.308-.912v-8.35c0-.399.103-.703.308-.912a.984.984 0 0 1 .726-.313c.144 0 .28.022.41.065.128.043.263.107.407.191l6.936 4.082c.252.149.437.31.555.484.117.174.176.365.176.574 0 .212-.06.407-.18.585-.12.177-.304.338-.55.481l-6.937 4.083a2.231 2.231 0 0 1-.407.19 1.264 1.264 0 0 1-.409.066Zm-9.476 0a.993.993 0 0 1-.733-.313C.603 14.878.5 14.574.5 14.175v-8.35c0-.399.102-.703.307-.912A.991.991 0 0 1 1.54 4.6c.14 0 .275.022.403.065.128.043.264.107.407.191l6.937 4.082c.252.149.437.31.555.484a1.035 1.035 0 0 1-.001 1.159c-.119.177-.303.338-.554.481L2.35 15.145a2.027 2.027 0 0 1-.403.19 1.26 1.26 0 0 1-.406.066Z"/>
</svg>
