<svg xmlns="http://www.w3.org/2000/svg" viewBox="0 0 20 20">
  <path fill="currentColor" d="M8.983 15.4a.987.987 0 0 0 .727-.313c.205-.209.308-.513.308-.912v-8.35c0-.399-.103-.703-.308-.912a.984.984 0 0 0-.726-.313c-.144 0-.28.022-.41.065a2.204 2.204 0 0 0-.407.191L1.231 8.938c-.252.149-.437.31-.555.484a1.004 1.004 0 0 0-.176.574c0 .212.06.407.18.585.12.177.304.338.55.481l6.937 4.083c.143.083.279.147.407.19.128.044.264.066.409.066Zm9.476 0a.993.993 0 0 0 .733-.313c.205-.209.308-.513.308-.912v-8.35c0-.399-.102-.703-.307-.912a.991.991 0 0 0-.733-.313c-.14 0-.275.022-.403.065a2.211 2.211 0 0 0-.407.191l-6.937 4.082c-.252.149-.437.31-.555.484a1.035 1.035 0 0 0 .001 1.159c.119.177.303.338.554.481l6.937 4.083c.138.083.273.147.403.19.13.044.266.066.406.066Z"/>
</svg>
