<svg xmlns="http://www.w3.org/2000/svg" viewBox="0 0 20 20">
  <g fill="currentColor" fill-rule="evenodd">
    <path fill-rule="nonzero" d="M8 1v7H1V1h7ZM7 2H2v5h5V2ZM6 3v3H3V3h3Zm13-2v7h-7V1h7Zm-1 1h-5v5h5V2Zm-1 1v3h-3V3h3Zm-9 9v7H1v-7h7Zm-1 1H2v5h5v-5Zm-1 1v3H3v-3h3Z"/>
    <path d="M9 1h2v2H9Zm0 4h2v2H9ZM1 9h2v2H1Zm4 0h2v2H5Zm6 8v2H9v-2h2Zm4 0v2h-2v-2h2Zm4 0v2h-2v-2h2Zm-6-2v2h-2v-2h2Zm4 0v2h-2v-2h2Zm-2-2v2h-2v-2h2Zm-4 0v2H9v-2h2Zm8 0v2h-2v-2h2Zm-6-2v2h-2v-2h2Zm4 0v2h-2v-2h2Zm-6-2v2H9V9h2Zm4 0v2h-2V9h2Zm4 0v2h-2V9h2Z"/>
  </g>
</svg>
