<svg xmlns="http://www.w3.org/2000/svg" viewBox="0 0 20 20">
  <path fill="currentColor" d="m7.41 10.486.317.553c.272.48.58.857.934 1.125l-.084.033-.12.07c-.127.086-.277.238-.451.456l-.913 1.172a1.07 1.07 0 0 0-.22.447 1.143 1.143 0 0 0-.01.36l.021.11.138.472c.053.172.09.382.113.63.022.249 0 .56-.066.934a3.19 3.19 0 0 1-.727 1.56c-.379.44-.839.761-1.381.964a3.213 3.213 0 0 1-1.715.146 3.251 3.251 0 0 1-1.568-.724 3.322 3.322 0 0 1-.975-1.379A3.193 3.193 0 0 1 .554 15.7a3.2 3.2 0 0 1 .726-1.558c.38-.442.84-.764 1.385-.966a3.245 3.245 0 0 1 1.725-.144c.219.039.404.06.554.065a.794.794 0 0 0 .396-.08.934.934 0 0 0 .257-.211l.087-.106 1.726-2.213Zm-3.265 3.941a1.836 1.836 0 0 0-.983.083c-.31.116-.572.3-.79.55-.217.25-.356.546-.416.887-.06.342-.031.666.088.972.12.307.304.567.555.782.25.215.549.353.895.414.343.06.668.032.977-.084.31-.116.572-.297.79-.545a1.78 1.78 0 0 0 .415-.883 1.81 1.81 0 0 0-.088-.976 1.933 1.933 0 0 0-.554-.787 1.825 1.825 0 0 0-.89-.413ZM4.799.5l9.517 12.2c.116.151.23.256.344.315a.794.794 0 0 0 .396.081 3.85 3.85 0 0 0 .554-.065 3.245 3.245 0 0 1 1.725.144 3.322 3.322 0 0 1 1.385.966 3.2 3.2 0 0 1 .726 1.558 3.193 3.193 0 0 1-.15 1.716 3.322 3.322 0 0 1-.974 1.379 3.251 3.251 0 0 1-1.568.724 3.213 3.213 0 0 1-1.715-.146 3.345 3.345 0 0 1-1.381-.963 3.19 3.19 0 0 1-.727-1.56 3.667 3.667 0 0 1-.066-.935 3.09 3.09 0 0 1 .113-.63l.138-.473a1.08 1.08 0 0 0 .012-.469 1.07 1.07 0 0 0-.221-.447l-.806-1.033c-.22-.293-.405-.492-.557-.595a1.168 1.168 0 0 0-.56-.185l-.614-.058c-.472-.046-.861-.168-1.167-.368-.306-.2-.587-.526-.844-.98L4.701 4.294c-.53-.941-.792-1.74-.787-2.396.005-.656.3-1.121.885-1.397Zm11.056 13.927c-.342.06-.639.198-.89.413-.25.215-.434.477-.553.787a1.8 1.8 0 0 0-.088.976c.06.342.199.636.416.883.217.248.48.43.789.545.309.116.634.144.977.084a1.84 1.84 0 0 0 .895-.414c.25-.215.436-.475.555-.782.12-.306.149-.63.088-.972a1.81 1.81 0 0 0-.416-.888 1.933 1.933 0 0 0-.79-.55 1.836 1.836 0 0 0-.983-.082ZM9.886 9.524a.643.643 0 0 0-.44.285.685.685 0 0 0-.108.518c.03.173.122.315.274.426.151.111.322.15.512.117a.634.634 0 0 0 .433-.283.655.655 0 0 0 .11-.495.685.685 0 0 0-.277-.45.634.634 0 0 0-.504-.118ZM15.201.5c.585.276.88.741.885 1.397.005.596-.212 1.31-.65 2.143l-.137.253-2.803 4.89-2.035-2.608L15.201.5Z"/>
</svg>
