<svg xmlns="http://www.w3.org/2000/svg" viewBox="0 0 20 20">
  <path fill="currentColor" d="M10.005.5c.148 0 .3.015.454.045.154.03.302.072.443.125.27.087.667.222 1.195.405a197.034 197.034 0 0 1 3.388 1.216c.527.193.925.347 1.194.46.444.187.775.399.993.636.219.236.328.621.328 1.155v7.204c0 .86-.13 1.612-.388 2.256-.259.644-.672 1.242-1.24 1.796s-1.321 1.122-2.259 1.706A73.016 73.016 0 0 1 10.66 19.5c-.12.067-.24.117-.358.15-.117.033-.216.05-.297.05-.08 0-.18-.017-.297-.05a1.708 1.708 0 0 1-.358-.15 78.398 78.398 0 0 1-3.453-2.006c-.938-.584-1.692-1.152-2.264-1.706-.571-.554-.986-1.15-1.245-1.791-.259-.64-.388-1.39-.388-2.251V4.542c0-.534.113-.92.338-1.16.225-.24.553-.45.983-.63.275-.114.675-.27 1.2-.466.524-.197 1.088-.407 1.693-.63a78.7 78.7 0 0 1 1.694-.606A19.336 19.336 0 0 1 9.541.555c.155-.037.31-.055.464-.055Zm0 1.333a.67.67 0 0 0-.156.02 18.3 18.3 0 0 0-1.508.459c-.514.176-1.07.374-1.665.594-.603.223-1.165.432-1.687.628-.512.193-.9.343-1.153.447-.27.113-.442.223-.526.313.037-.04.028.005.024.16v7.292c0 .698.1 1.28.29 1.751.187.462.495.905.937 1.333.497.482 1.178.995 2.04 1.532a76.88 76.88 0 0 0 3.392 1.97l.011.006.016-.008a76.096 76.096 0 0 0 3.076-1.765l.313-.193c.861-.536 1.54-1.049 2.032-1.529.44-.428.747-.873.934-1.338.191-.476.292-1.06.292-1.76V4.543c0-.197-.015-.278.01-.265l-.03-.029c-.09-.075-.25-.17-.486-.268-.245-.104-.626-.25-1.135-.437-.394-.145-.81-.296-1.245-.453l-.883-.318a150.424 150.424 0 0 0-2.122-.74l-.345-.115a1.384 1.384 0 0 0-.226-.063 1.048 1.048 0 0 0-.2-.02Zm0 3.167c.675 0 1.223.233 1.643.7.42.466.63 1.078.63 1.836v.953c.481.04.722.34.722.9v3.262c0 .606-.288.909-.863.909H7.863c-.575 0-.863-.303-.863-.91V9.39c0-.56.24-.86.722-.901v-.953c0-.758.209-1.37.626-1.837.417-.466.97-.699 1.656-.699Zm0 .883c-.412 0-.74.143-.987.429-.247.285-.37.664-.37 1.136v1.023h2.713V7.448c0-.472-.125-.85-.374-1.136-.25-.286-.577-.429-.983-.429Z"/>
</svg>
