<svg xmlns="http://www.w3.org/2000/svg" viewBox="0 0 20 20">
  <path fill="currentColor" d="M10.005 1a2.525 2.525 0 0 1 .841.159 57.1 57.1 0 0 1 1.12.38c.495.172 1.024.36 1.588.563.564.203 1.093.396 1.588.577.494.181.868.325 1.12.431.416.176.726.374.93.596.206.222.308.583.308 1.083v6.754c0 .807-.121 1.512-.364 2.115-.242.604-.63 1.165-1.162 1.684-.533.519-1.239 1.052-2.118 1.6a68.453 68.453 0 0 1-3.237 1.87c-.113.063-.225.11-.335.141a1.07 1.07 0 0 1-.28.047c-.075 0-.168-.016-.278-.047a1.602 1.602 0 0 1-.336-.14 73.498 73.498 0 0 1-3.237-1.881c-.879-.547-1.586-1.08-2.122-1.6-.535-.519-.925-1.078-1.167-1.679-.243-.6-.364-1.303-.364-2.11V4.789c0-.5.106-.862.317-1.088.21-.225.518-.422.921-.59.259-.107.633-.252 1.125-.437.491-.184 1.02-.381 1.588-.59.567-.21 1.096-.4 1.588-.568a18.128 18.128 0 0 1 1.53-.464c.146-.035.29-.052.436-.052Zm0 1.25a.628.628 0 0 0-.146.018 17.157 17.157 0 0 0-1.414.43c-.482.166-1.003.352-1.561.558a324.9 324.9 0 0 0-1.582.589c-.48.18-.844.321-1.081.419-.252.105-.414.209-.493.292.035-.036.026.006.023.152l-.001 6.835c0 .654.094 1.2.273 1.642.175.432.463.848.878 1.25.466.451 1.104.932 1.913 1.436.858.534 1.92 1.15 3.18 1.847l.01.005.015-.007a71.34 71.34 0 0 0 2.883-1.655l.294-.181c.807-.503 1.443-.983 1.905-1.433.412-.402.7-.819.875-1.255.18-.446.274-.994.274-1.649V4.789c0-.184-.014-.26.01-.248l-.028-.027a1.895 1.895 0 0 0-.456-.252 27.88 27.88 0 0 0-1.064-.41l-1.167-.424-.828-.298a141.022 141.022 0 0 0-1.99-.694l-.323-.107a1.297 1.297 0 0 0-.4-.079Zm0 2.75c.675 0 1.223.233 1.643.7.42.466.63 1.078.63 1.836v.953c.481.04.722.34.722.9v3.262c0 .606-.288.909-.863.909H7.863c-.575 0-.863-.303-.863-.91V9.39c0-.56.24-.86.722-.901v-.953c0-.758.209-1.37.626-1.837.417-.466.97-.699 1.656-.699Zm0 .883c-.412 0-.74.143-.987.429-.247.285-.37.664-.37 1.136v1.023h2.713V7.448c0-.472-.125-.85-.374-1.136-.25-.286-.577-.429-.983-.429Z"/>
</svg>
