<svg xmlns="http://www.w3.org/2000/svg" viewBox="0 0 20 20">
  <path fill="currentColor" d="M6.5 15a1.5 1.5 0 1 1 0 3 1.5 1.5 0 0 1 0-3Zm8 0a1.5 1.5 0 1 1 0 3 1.5 1.5 0 0 1 0-3ZM3.75 2c.38 0 .7.284.745.661L4.653 4H17.25c.42 0 .75.342.75.748l-.007.103-.632 4.635A1.75 1.75 0 0 1 15.627 11l-10.14-.001.153 1.28a.25.25 0 0 0 .187.213l.061.008H15.5a.75.75 0 1 1 0 1.5H5.888a1.75 1.75 0 0 1-1.738-1.543L3.084 3.5H.75a.75.75 0 0 1-.743-.648L0 2.75A.75.75 0 0 1 .75 2h3Zm12.64 3.499H4.832l.476 4 10.32.001a.25.25 0 0 0 .231-.157l.016-.06.515-3.784Z"/>
</svg>
