<svg xmlns="http://www.w3.org/2000/svg" viewBox="0 0 20 20">
  <g fill="none" fill-rule="evenodd">
    <path fill="currentColor" fill-rule="nonzero" d="M5.994 15.816c.24.188.545.123.908-.14l3.096-2.277 3.103 2.277c.363.263.661.328.907.14.24-.181.293-.48.146-.907l-1.223-3.641 3.126-2.248c.363-.258.51-.527.415-.82-.093-.28-.368-.42-.82-.415l-3.833.023-1.165-3.658c-.14-.433-.351-.65-.656-.65-.298 0-.51.217-.65.65L8.184 7.808l-3.835-.023c-.45-.006-.726.135-.82.416-.099.292.054.561.416.82l3.126 2.247-1.223 3.64c-.146.428-.094.727.146.908Z"/>
    <circle cx="10" cy="10" r="9.5" stroke="currentColor" stroke-linecap="round" stroke-linejoin="round"/>
  </g>
</svg>
