<svg xmlns="http://www.w3.org/2000/svg" viewBox="0 0 20 20">
  <path fill="currentColor" d="M4.145 19c.351.274.796.18 1.327-.205l4.525-3.328 4.535 3.328c.53.385.967.48 1.326.206.35-.266.428-.702.214-1.326l-1.788-5.322 4.568-3.285c.53-.377.745-.77.608-1.198-.137-.41-.54-.616-1.198-.607l-5.604.034-1.702-5.347c-.206-.633-.514-.95-.959-.95-.436 0-.744.317-.95.95L7.346 7.297l-5.604-.034c-.658-.009-1.06.196-1.197.607-.146.428.077.821.607 1.198l4.569 3.285-1.788 5.322c-.214.624-.137 1.06.213 1.326Z"/>
</svg>
