<svg xmlns="http://www.w3.org/2000/svg" viewBox="0 0 20 20">
  <path fill="currentColor" d="M10.005 1c.796 0 1.603.399 2.04 1.168l7.644 13.374c.214.361.311.75.311 1.14C20 17.974 19.087 19 17.63 19H2.37C.913 19 0 17.974 0 16.682c0-.39.107-.77.32-1.13L7.956 2.168C8.392 1.398 9.2 1 10.005 1ZM10 13.4c-.58 0-1.1.469-1.1 1.1 0 .631.53 1.1 1.1 1.1.56 0 1.1-.458 1.1-1.1 0-.642-.53-1.1-1.1-1.1Zm0-7.2c-.528 0-.918.369-.9.867l.13 4.558c.019.498.288.775.78.775.463 0 .741-.268.76-.775l.13-4.549c.018-.498-.38-.876-.9-.876Z"/>
</svg>
