<svg xmlns="http://www.w3.org/2000/svg" viewBox="0 0 20 20">
  <g fill="none" fill-rule="evenodd">
    <path stroke="currentColor" stroke-linecap="round" stroke-linejoin="round" d="M17.248 18.5c1.385 0 2.252-.969 2.252-2.189a2.08 2.08 0 0 0-.295-1.076L11.942 2.603A2.22 2.22 0 0 0 10.005 1.5c-.766 0-1.532.377-1.947 1.103L.805 15.243c-.203.341-.305.7-.305 1.068 0 1.22.867 2.189 2.252 2.189h14.496Z"/>
    <path fill="currentColor" fill-rule="nonzero" d="M10.01 12.4c-.492 0-.761-.277-.78-.775L9.1 7.067c-.018-.498.372-.867.9-.867.52 0 .918.378.9.876l-.13 4.549c-.019.507-.297.775-.76.775ZM10 15.6c-.57 0-1.1-.469-1.1-1.1 0-.631.52-1.1 1.1-1.1.57 0 1.1.458 1.1 1.1 0 .642-.54 1.1-1.1 1.1Z"/>
  </g>
</svg>
