<svg xmlns="http://www.w3.org/2000/svg" viewBox="0 0 20 20">
  <g fill="none" fill-rule="evenodd">
    <path stroke="currentColor" stroke-linecap="round" stroke-linejoin="round" stroke-width="1.3" d="M17.134 18.232c1.362 0 2.216-.954 2.216-2.155 0-.362-.09-.724-.29-1.06l-7.149-12.43A2.185 2.185 0 0 0 10.005 1.5c-.754 0-1.508.37-1.917 1.086L.95 15.026c-.2.336-.3.69-.3 1.051 0 1.201.854 2.155 2.216 2.155h14.268Z"/>
    <path fill="currentColor" fill-rule="nonzero" d="M10.01 12.4c-.492 0-.761-.277-.78-.775L9.1 7.067c-.018-.498.372-.867.9-.867.52 0 .918.378.9.876l-.13 4.549c-.019.507-.297.775-.76.775ZM10 15.6c-.57 0-1.1-.469-1.1-1.1 0-.631.52-1.1 1.1-1.1.57 0 1.1.458 1.1 1.1 0 .642-.54 1.1-1.1 1.1Z"/>
  </g>
</svg>
